<?xml version="1.0" encoding="UTF-8" standalone="no"?>
<svg
   width="809pt"
   height="791pt"
   viewBox="0 0 809 791"
   version="1.1"
   id="svg32"
   sodipodi:docname="acercademi.svg"
   inkscape:export-filename="acercademi.png"
   inkscape:export-xdpi="90.007416"
   inkscape:export-ydpi="90.007416"
   inkscape:version="1.2 (dc2aedaf03, 2022-05-15)"
   xmlns:inkscape="http://www.inkscape.org/namespaces/inkscape"
   xmlns:sodipodi="http://sodipodi.sourceforge.net/DTD/sodipodi-0.dtd"
   xmlns="http://www.w3.org/2000/svg"
   xmlns:svg="http://www.w3.org/2000/svg">
  <defs
     id="defs36" />
  <sodipodi:namedview
     id="namedview34"
     pagecolor="#ffffff"
     bordercolor="#000000"
     borderopacity="0.25"
     inkscape:showpageshadow="2"
     inkscape:pageopacity="0.0"
     inkscape:pagecheckerboard="0"
     inkscape:deskcolor="#d1d1d1"
     inkscape:document-units="pt"
     showgrid="false"
     inkscape:zoom="0.39159292"
     inkscape:cx="-15.322034"
     inkscape:cy="200.46328"
     inkscape:window-width="1920"
     inkscape:window-height="1013"
     inkscape:window-x="-9"
     inkscape:window-y="1431"
     inkscape:window-maximized="1"
     inkscape:current-layer="svg32" />
  <g
     id="#3c3533ff">
    <path
       fill="#3c3533"
       opacity="1.00"
       d=" M 326.26 32.28 L 326.98 32.04 C 328.36 33.83 328.91 36.17 329.86 38.21 C 326.69 38.50 326.07 34.67 326.26 32.28 Z"
       id="path19" />
    <path
       fill="#3c3533"
       opacity="1.00"
       d=" M 354.78 32.66 C 358.20 31.20 358.95 35.52 359.96 37.74 C 360.71 37.75 361.46 37.77 362.21 37.79 C 363.02 40.69 362.84 44.34 365.82 46.02 C 365.53 44.03 364.48 42.06 364.97 40.02 C 365.58 38.21 364.37 36.55 363.89 34.86 C 365.25 35.90 367.15 36.59 367.72 38.35 C 368.21 39.41 368.34 40.96 369.87 40.83 C 369.76 39.39 369.50 37.95 369.49 36.50 C 369.92 36.31 370.78 35.94 371.21 35.76 C 371.71 34.87 371.68 33.48 372.88 33.20 C 374.45 34.77 374.93 37.12 376.09 38.99 C 378.19 39.05 378.22 36.90 378.35 35.36 C 380.46 37.01 383.28 38.29 384.00 41.10 C 384.95 44.10 387.32 46.29 389.04 48.84 C 389.44 47.16 389.43 45.43 389.50 43.72 C 393.47 45.14 394.44 49.81 397.78 52.03 C 397.61 50.38 397.34 48.75 397.20 47.10 C 398.46 47.78 398.63 49.26 399.19 50.45 C 400.07 50.15 400.92 49.75 401.82 49.47 C 403.01 50.28 404.06 51.28 405.20 52.16 C 406.54 51.21 406.21 49.58 406.31 48.17 C 407.52 50.10 408.85 51.98 409.76 54.08 C 410.51 55.89 409.88 58.38 411.98 59.41 C 415.05 57.87 413.99 53.33 417.59 52.53 C 419.18 54.67 420.39 57.54 423.12 58.43 C 425.81 58.82 425.72 62.40 428.09 63.36 C 429.93 63.87 429.93 61.67 430.23 60.51 C 430.69 60.78 431.16 61.04 431.64 61.30 C 431.99 61.14 432.70 60.82 433.06 60.66 C 434.27 60.99 435.81 61.28 436.52 62.42 C 436.74 65.13 436.13 67.85 436.56 70.54 C 437.21 72.17 439.45 72.20 440.39 73.65 C 441.52 74.76 442.56 77.27 444.53 76.41 C 446.74 75.36 449.21 75.29 451.55 74.67 C 452.63 73.42 453.49 71.92 454.93 71.02 C 454.93 72.96 454.54 74.88 453.57 76.57 C 451.87 79.76 451.46 83.42 451.39 86.98 C 453.83 86.25 454.15 82.42 456.74 82.39 C 458.88 84.78 460.44 87.65 462.70 89.97 C 461.86 91.03 460.93 92.01 460.08 93.05 C 462.96 93.58 465.94 93.42 468.77 94.27 C 468.45 96.06 465.21 94.91 463.74 95.73 C 463.60 96.21 463.30 97.17 463.16 97.64 C 465.00 97.63 466.83 97.37 468.68 97.21 C 467.91 99.09 466.23 101.95 468.69 103.32 C 472.32 105.12 472.78 110.00 476.70 111.29 C 479.62 112.45 481.40 115.31 482.20 118.23 C 479.52 117.36 477.28 115.61 474.83 114.30 C 477.91 117.57 482.66 118.91 485.09 122.87 C 486.96 125.96 489.52 128.75 490.79 132.14 C 489.43 137.23 493.05 141.72 494.80 146.26 C 497.48 150.65 496.77 155.90 496.33 160.75 C 497.22 163.09 499.60 164.66 500.05 167.23 C 501.04 171.48 502.87 175.52 503.19 179.92 C 503.65 185.97 506.81 191.62 506.06 197.79 C 507.72 204.14 509.33 210.59 509.57 217.18 C 508.77 221.37 508.01 225.68 505.97 229.47 C 510.78 226.74 516.92 228.52 519.44 233.46 C 519.84 237.98 519.62 242.53 519.68 247.06 C 519.73 253.33 517.62 259.58 518.91 265.84 C 519.87 270.06 519.19 274.44 520.15 278.66 C 521.58 286.13 519.75 293.66 518.95 301.09 C 518.26 307.26 515.59 312.96 514.47 319.02 C 513.72 322.53 517.25 324.59 518.19 327.63 C 519.61 333.74 518.41 341.13 513.12 345.09 C 510.53 347.27 506.99 346.64 503.89 346.85 C 502.68 360.52 500.03 374.07 496.12 387.22 C 492.32 398.89 488.87 410.70 484.14 422.04 C 482.84 424.83 483.28 428.03 484.21 430.87 C 485.89 436.08 486.69 441.51 487.32 446.94 C 487.89 454.65 489.47 462.42 488.23 470.15 C 486.99 477.83 484.78 485.30 482.69 492.78 C 480.49 503.35 475.55 513.14 473.66 523.80 C 471.56 527.74 470.76 532.37 468.10 535.98 C 468.37 530.82 471.65 526.21 471.19 521.02 C 469.36 522.23 469.36 524.74 468.65 526.63 C 466.88 534.51 463.19 541.79 461.67 549.74 C 459.79 555.39 457.13 560.88 453.87 565.86 C 448.51 569.23 442.33 571.32 437.28 575.28 C 432.18 579.39 425.02 578.95 419.79 582.79 C 414.68 586.22 409.60 589.97 405.99 595.04 C 403.20 598.23 400.98 602.13 397.07 604.10 C 394.41 605.55 393.74 608.72 392.32 611.16 C 391.31 612.22 389.87 612.78 388.95 613.94 C 388.25 615.95 388.67 618.44 387.06 620.05 C 385.10 621.32 382.13 619.46 380.45 621.40 C 380.36 622.71 380.43 624.03 380.36 625.35 C 378.13 625.51 375.88 625.52 373.65 625.36 C 373.54 623.90 373.64 622.43 373.43 620.99 C 371.83 620.41 370.41 619.50 369.07 618.48 C 367.71 619.27 366.46 620.30 365.56 621.61 C 364.72 623.38 366.72 624.89 366.70 626.66 C 364.06 626.29 361.49 626.69 359.02 627.62 C 357.93 627.20 356.93 626.62 355.88 626.15 C 355.23 627.44 354.71 628.80 354.05 630.10 C 351.17 631.28 347.23 630.36 345.30 633.31 C 343.01 636.14 339.49 637.45 336.73 639.72 C 335.32 641.06 333.28 640.21 331.56 640.47 C 331.19 641.49 330.83 642.53 330.47 643.57 C 329.27 643.67 328.08 643.58 326.89 643.57 C 328.52 645.57 329.85 647.78 330.87 650.16 C 333.28 655.49 339.30 657.86 341.93 663.06 C 343.95 667.08 348.49 669.98 348.55 674.83 C 347.38 677.74 343.49 676.71 341.22 675.84 C 335.90 674.46 334.65 667.66 329.34 666.33 C 328.75 667.70 329.04 669.60 327.88 670.65 C 325.11 670.30 322.44 668.99 319.61 669.35 C 318.94 670.53 319.19 672.41 317.84 673.10 C 314.13 673.67 309.87 673.68 306.79 671.21 C 301.46 667.29 295.35 663.73 292.30 657.57 C 289.68 652.38 285.42 648.27 282.83 643.07 C 279.12 636.54 277.98 628.73 273.20 622.79 C 272.02 621.43 270.43 619.68 268.45 620.60 C 265.05 622.01 260.48 623.40 259.74 627.58 C 259.24 631.77 258.83 636.17 259.74 640.33 C 261.60 644.04 263.09 648.03 265.65 651.33 C 268.92 654.61 270.10 659.46 270.31 663.94 C 268.38 668.76 264.18 672.10 260.58 675.65 C 259.87 678.99 261.45 682.57 259.93 685.82 C 259.12 689.00 255.63 689.67 253.25 691.28 C 250.81 693.87 251.19 697.75 252.09 700.92 C 253.66 709.04 258.88 715.94 259.91 724.21 C 261.31 729.90 259.40 736.15 255.25 740.25 C 253.65 741.95 251.24 743.21 250.90 745.76 C 249.77 751.59 251.06 757.62 249.68 763.45 C 249.03 772.61 249.61 781.82 249.27 791.00 L 0.00 791.00 L 0.00 559.29 C 3.67 558.94 7.22 557.99 10.76 557.04 C 14.56 555.99 18.75 557.20 22.35 555.35 C 28.91 552.47 33.88 546.76 40.84 544.69 C 44.89 543.52 48.81 541.88 52.95 541.05 C 60.31 539.26 66.80 535.20 73.98 532.93 C 84.01 529.23 93.49 524.16 103.60 520.71 C 118.97 517.36 134.53 514.60 149.56 509.88 C 161.76 508.35 172.37 501.70 183.83 497.75 C 192.41 493.95 201.38 491.10 209.88 487.13 C 215.84 484.57 223.21 483.87 227.49 478.50 C 230.61 474.95 234.37 471.92 236.94 467.89 C 238.60 465.32 240.00 462.57 241.89 460.16 C 241.44 462.99 240.30 465.64 239.52 468.40 C 230.76 505.33 226.16 543.08 222.73 580.83 C 221.94 588.16 220.97 596.52 225.09 603.02 C 224.67 598.41 222.83 593.82 224.06 589.19 C 225.32 581.80 230.04 575.48 235.55 570.64 C 241.52 567.50 248.34 566.27 255.00 565.59 C 258.35 565.08 261.59 566.56 264.19 568.56 C 268.21 580.46 272.33 592.73 280.47 602.54 C 286.22 605.53 290.26 610.84 295.40 614.67 C 297.35 615.82 301.26 616.62 302.26 613.97 C 301.50 611.36 298.38 609.77 298.51 606.75 C 298.18 601.85 295.80 596.92 291.55 594.29 C 289.77 593.27 287.10 595.56 285.77 593.44 C 285.49 591.48 286.33 588.92 284.16 587.79 C 283.02 586.59 281.51 586.47 280.13 587.24 C 278.90 583.89 275.96 581.90 273.62 579.42 C 272.85 575.98 273.45 572.44 273.47 568.97 C 273.14 567.48 272.02 566.30 271.74 564.81 C 271.59 558.26 268.21 552.41 267.00 546.06 C 266.55 542.36 262.95 540.12 262.34 536.48 C 261.74 534.35 263.45 532.49 263.44 530.42 C 261.44 528.03 259.14 525.68 258.61 522.48 C 258.00 521.00 258.35 518.83 256.81 517.95 C 256.20 523.73 258.77 529.21 258.89 534.96 C 257.91 534.04 257.88 532.63 257.61 531.43 C 256.86 526.93 255.81 522.49 255.16 517.98 C 253.88 511.98 251.59 506.18 251.30 499.99 C 249.60 490.09 248.77 480.04 248.84 470.00 C 249.59 465.50 248.74 460.54 250.98 456.41 C 252.86 458.73 252.70 462.25 255.09 464.17 C 258.03 461.05 254.06 457.06 253.32 453.73 C 251.52 446.12 246.92 439.70 242.85 433.18 C 240.38 428.83 238.39 424.23 236.34 419.68 C 234.17 415.56 236.26 410.69 234.49 406.46 C 232.44 401.51 233.69 395.97 232.15 390.88 C 229.74 383.92 230.24 376.39 230.57 369.15 C 229.25 366.63 229.47 363.92 229.72 361.20 C 229.42 358.38 226.41 353.85 230.22 352.28 C 235.06 350.81 237.70 345.99 238.25 341.23 C 238.77 335.54 244.74 333.29 249.18 331.16 C 253.74 329.32 256.90 325.30 261.38 323.34 C 263.84 322.01 266.12 320.33 268.18 318.45 C 269.01 316.37 269.54 314.01 271.46 312.61 C 273.63 313.25 276.16 313.92 277.95 311.99 C 279.39 309.90 282.16 311.41 283.83 309.87 C 288.68 305.55 295.67 304.89 300.53 300.55 C 303.79 297.53 308.51 299.18 311.90 301.06 C 309.04 305.45 303.76 307.71 301.54 312.63 C 298.23 317.41 298.94 323.61 301.04 328.71 C 305.63 326.42 310.07 323.79 314.84 321.87 C 319.85 320.89 324.97 321.93 329.93 322.70 C 333.19 321.75 334.26 317.70 337.30 316.29 C 340.31 315.01 343.39 313.87 346.24 312.23 C 347.78 311.15 350.15 311.93 351.32 310.28 C 352.11 306.48 351.95 302.44 350.12 298.96 C 350.98 294.76 352.59 290.67 352.58 286.32 C 353.26 280.75 351.65 275.31 349.81 270.12 C 348.39 266.32 351.19 261.85 348.64 258.35 C 346.59 256.15 343.36 254.74 343.23 251.34 C 339.47 251.13 335.51 250.56 331.90 251.87 C 329.47 256.30 329.50 261.66 327.14 266.14 C 325.34 268.93 322.57 270.89 320.53 273.49 C 319.39 274.68 318.59 276.40 316.89 276.89 C 312.33 278.52 307.74 280.06 303.01 281.11 C 295.28 284.26 286.92 286.28 278.53 285.33 C 276.18 284.67 274.15 283.21 271.84 282.44 C 269.87 282.49 267.99 283.27 266.02 283.31 C 263.08 282.60 260.17 281.75 257.29 280.84 L 257.32 280.06 C 258.83 279.68 260.38 279.44 261.89 279.02 C 260.77 277.66 258.77 277.61 257.28 276.85 L 257.34 276.14 C 260.66 275.06 264.13 274.51 267.44 273.39 C 268.23 271.78 268.68 270.04 269.40 268.41 C 270.60 268.32 271.80 268.35 273.00 268.30 C 273.05 266.50 270.90 266.17 270.28 264.69 C 268.91 261.62 264.96 261.98 262.15 261.55 C 255.70 262.51 249.36 266.18 242.73 263.90 C 242.51 263.15 242.30 262.40 242.08 261.66 C 239.40 261.24 236.64 261.12 234.10 260.10 C 235.13 259.33 236.04 258.44 236.86 257.46 C 237.86 257.36 238.86 257.51 239.86 257.53 C 240.11 255.43 238.27 254.25 237.13 252.79 C 237.32 250.03 238.72 247.50 240.38 245.35 C 241.25 243.77 243.79 245.20 244.49 243.50 C 245.56 240.97 247.06 238.60 249.88 237.86 C 253.22 236.87 254.77 233.68 256.16 230.79 C 257.70 230.38 259.34 230.50 260.88 230.04 C 257.36 227.93 254.80 224.52 250.82 223.18 C 250.54 222.29 250.38 221.39 250.11 220.51 C 247.89 218.97 245.02 218.24 243.30 216.06 C 244.43 215.16 245.52 213.88 247.01 213.70 C 252.68 216.05 258.61 213.20 264.25 212.27 C 264.39 212.63 264.65 213.35 264.78 213.72 C 271.86 213.68 278.94 213.41 286.02 213.73 C 287.99 213.79 289.71 215.00 291.65 215.21 C 295.22 213.23 299.45 213.67 303.14 212.03 C 305.32 211.07 307.82 211.70 309.98 210.60 C 312.86 211.53 315.89 211.75 318.90 211.68 C 321.34 211.71 323.40 209.82 325.81 209.86 C 328.14 212.46 331.22 213.61 334.64 213.77 C 335.28 214.69 335.54 215.89 336.45 216.61 C 338.17 217.19 339.56 215.64 341.05 215.06 C 344.81 212.81 349.75 214.03 353.27 211.24 C 356.12 209.09 359.66 208.27 362.84 206.74 C 365.58 205.41 368.92 205.42 371.23 203.23 C 374.21 200.32 379.04 199.28 380.16 194.81 C 383.10 194.25 386.20 194.34 388.99 193.04 C 391.91 191.71 395.03 192.86 398.00 193.27 C 400.78 193.72 403.13 190.86 402.68 188.23 C 401.33 185.13 401.65 181.50 399.15 178.93 C 399.58 177.42 401.34 177.39 402.52 176.72 C 402.17 175.47 400.32 175.33 399.42 174.48 C 399.01 172.36 399.83 170.24 400.03 168.14 C 397.10 165.45 393.10 164.43 390.03 161.94 C 387.44 159.73 383.78 160.23 380.69 159.30 C 379.87 156.91 378.74 154.19 379.66 151.68 C 381.72 150.47 384.16 150.64 386.44 150.21 C 388.26 149.61 389.70 148.24 391.13 147.02 C 389.76 145.98 388.30 145.06 386.98 143.97 C 388.68 141.38 391.26 139.58 393.21 137.20 C 393.83 135.73 394.13 134.15 394.66 132.65 C 398.08 130.79 402.42 130.05 404.70 126.58 C 405.54 125.38 407.21 125.73 408.44 125.26 C 409.52 123.58 410.78 122.03 412.15 120.58 C 412.56 117.03 413.39 113.55 414.19 110.07 C 412.87 107.95 410.27 109.83 408.32 109.58 C 406.64 107.20 404.66 105.11 401.84 104.14 C 400.92 102.10 401.45 98.88 398.87 98.07 C 395.25 96.49 392.53 93.19 388.56 92.41 C 384.90 91.55 381.23 90.73 377.51 90.17 C 374.30 89.68 372.10 86.51 368.74 86.63 C 364.68 86.69 361.90 82.98 357.96 82.48 C 354.70 82.17 352.53 79.72 350.76 77.23 C 348.64 77.82 346.37 80.74 344.30 78.56 C 345.10 78.16 345.90 77.76 346.71 77.36 C 342.75 76.37 339.04 70.63 334.88 73.85 C 332.67 76.20 329.33 75.31 326.60 76.50 C 323.95 77.57 323.17 73.61 320.93 73.08 C 318.32 73.25 315.91 74.59 313.30 74.61 C 311.01 73.58 309.16 71.83 307.15 70.36 C 307.15 71.52 307.14 72.68 307.12 73.84 C 304.53 72.62 302.90 70.24 300.95 68.27 C 300.49 70.48 301.15 72.89 300.09 74.96 C 298.45 74.01 296.94 72.89 295.37 71.85 C 295.84 72.92 296.37 73.97 296.81 75.05 C 293.33 76.49 289.06 74.34 285.95 77.00 C 284.64 77.64 284.69 79.09 284.58 80.33 C 282.54 80.62 280.38 80.56 278.54 81.62 C 277.58 82.24 275.84 83.35 277.34 84.43 C 275.97 87.80 271.70 87.44 269.07 89.07 C 267.26 91.25 265.19 93.14 262.36 93.84 C 264.85 96.31 260.34 97.41 259.47 99.43 C 257.29 103.66 255.78 108.25 253.17 112.27 C 251.72 114.78 248.64 115.83 247.39 118.50 C 246.09 120.45 245.85 122.80 245.49 125.05 C 241.72 127.48 239.27 131.53 237.32 135.47 C 235.23 139.29 232.62 142.81 230.70 146.72 C 229.75 148.93 230.44 151.36 231.14 153.54 C 230.35 156.27 226.53 159.10 229.38 161.83 C 224.54 164.10 226.36 170.90 221.92 173.47 C 222.89 173.41 223.86 173.36 224.83 173.32 C 224.43 175.59 223.66 177.78 223.18 180.03 C 224.52 179.02 224.58 177.07 225.90 176.08 C 226.38 178.60 226.83 181.18 226.62 183.76 C 225.79 187.09 223.77 190.08 223.60 193.58 C 223.55 197.44 221.32 200.72 220.32 204.34 C 217.84 213.37 216.79 222.69 216.05 231.99 C 213.74 249.44 212.30 266.96 210.22 284.44 C 209.64 287.25 209.26 290.16 208.02 292.79 C 206.38 290.50 206.76 287.62 206.62 284.98 C 206.53 281.48 205.99 278.01 205.40 274.57 C 204.06 274.26 202.71 274.05 201.39 273.68 C 200.06 271.73 200.31 269.27 200.23 267.04 C 200.36 262.34 199.27 257.67 199.89 252.98 C 202.06 255.28 202.88 258.45 204.77 260.95 C 204.39 256.55 205.55 251.76 203.33 247.72 C 201.86 245.12 202.99 242.00 201.96 239.27 C 200.52 234.56 202.27 229.73 202.37 224.98 C 202.46 222.05 201.00 219.22 201.61 216.29 C 202.71 211.00 202.76 205.55 202.63 200.17 C 202.04 194.06 203.88 188.09 205.36 182.24 C 208.22 175.20 207.70 167.42 209.41 160.11 C 211.44 153.45 213.35 146.70 216.63 140.53 C 219.48 136.62 222.95 133.00 224.43 128.27 C 225.58 124.76 228.53 122.39 231.43 120.34 C 231.88 118.99 231.39 117.54 231.49 116.14 C 233.13 113.94 235.38 112.27 237.10 110.13 C 238.65 105.99 240.64 102.02 242.59 98.07 C 245.07 96.13 246.26 93.25 247.37 90.40 C 248.48 87.30 251.60 85.67 253.09 82.82 C 254.65 79.99 258.35 79.89 260.68 77.98 C 260.80 76.52 260.74 75.03 260.33 73.62 C 259.34 73.25 258.27 73.69 257.26 73.69 C 257.96 71.23 260.11 69.70 261.44 67.63 C 263.45 67.94 265.39 68.63 267.41 68.93 C 267.40 68.20 267.42 67.48 267.44 66.76 C 269.37 66.34 270.78 64.98 272.15 63.66 C 274.61 65.13 272.57 67.70 271.32 69.18 C 271.84 68.99 272.86 68.61 273.38 68.42 C 274.78 65.83 274.97 62.85 275.65 60.04 C 276.52 59.49 277.52 59.20 278.50 58.89 C 278.71 60.59 277.77 62.96 279.71 63.94 C 279.94 61.09 279.56 58.23 277.95 55.82 C 279.06 54.85 280.47 54.32 281.91 54.01 C 283.59 55.93 282.05 58.63 282.13 60.88 C 283.05 59.52 283.80 58.05 284.68 56.65 C 289.80 54.55 295.04 51.98 298.46 47.43 C 299.61 45.54 301.93 46.41 303.72 46.22 C 304.88 45.53 305.91 44.64 307.06 43.94 C 308.94 44.15 310.78 44.72 312.68 44.81 C 314.33 43.71 315.99 42.60 317.63 41.48 C 317.82 40.89 318.19 39.71 318.38 39.12 C 319.18 39.95 319.94 40.82 320.77 41.63 C 321.30 40.91 321.84 40.21 322.39 39.51 C 324.63 39.41 326.93 40.95 329.01 39.51 C 329.51 40.12 330.01 40.75 330.50 41.38 C 333.74 40.67 336.39 38.53 339.28 37.03 C 339.51 38.03 339.71 39.05 340.03 40.03 C 341.45 38.88 341.18 36.65 342.51 35.43 C 344.49 34.49 346.65 33.88 348.82 33.55 C 350.94 34.54 352.43 37.29 354.91 37.13 C 354.93 35.65 354.25 34.09 354.78 32.66 M 355.12 38.45 C 354.64 39.79 357.77 41.64 358.38 39.94 C 358.70 38.05 356.31 37.96 355.12 38.45 M 455.25 88.26 C 455.83 88.84 455.83 88.84 455.25 88.26 M 427.71 185.27 C 427.50 186.20 427.38 187.14 427.15 188.06 C 423.71 190.49 419.35 190.92 415.59 192.68 C 413.34 193.99 410.73 193.26 408.29 193.31 C 408.00 195.63 409.64 197.56 410.54 199.56 C 414.56 200.05 418.70 199.07 422.64 200.30 C 426.64 201.43 430.51 199.34 433.99 197.60 C 437.95 199.19 442.47 200.70 446.51 198.39 C 447.05 197.46 447.43 196.45 447.59 195.39 C 446.66 195.07 445.80 194.65 445.00 194.11 C 445.56 193.12 446.22 192.18 446.71 191.14 C 445.41 189.05 442.64 189.48 440.79 188.23 C 437.68 184.79 432.01 183.25 427.71 185.27 M 433.04 290.70 C 431.68 290.43 430.37 289.98 429.01 289.74 C 423.30 291.21 417.22 290.81 411.60 292.60 C 410.81 294.87 410.19 297.29 410.41 299.71 C 411.44 302.49 414.92 301.13 416.99 302.55 C 418.92 302.06 420.58 303.01 422.21 303.91 C 424.67 303.81 427.22 303.76 429.47 302.62 C 434.47 301.59 440.28 302.03 444.23 298.20 C 445.86 296.63 443.65 294.49 444.62 292.70 C 446.19 292.26 447.81 291.93 449.33 291.32 C 449.92 290.27 451.13 288.87 450.41 287.65 C 445.93 287.36 441.53 286.16 437.01 286.76 C 434.65 286.61 434.83 290.00 433.04 290.70 M 313.38 354.39 C 307.73 355.07 306.80 363.33 309.93 367.08 C 312.72 368.40 315.93 367.43 318.76 366.72 C 322.89 365.61 327.23 365.52 331.32 364.25 C 333.05 363.49 332.85 361.55 331.33 360.70 C 326.11 357.08 320.02 353.47 313.38 354.39 M 351.01 380.98 C 350.32 381.88 350.29 383.49 349.09 383.88 C 346.41 380.46 343.10 375.74 338.10 376.82 C 334.46 378.23 333.97 382.51 332.85 385.73 C 330.43 383.78 329.84 379.33 325.99 379.20 C 322.45 379.86 322.93 384.25 322.72 386.96 C 321.16 385.57 320.92 383.11 319.01 382.02 C 316.82 380.65 315.28 377.62 312.33 378.17 C 311.73 383.83 312.97 389.49 315.49 394.57 C 318.59 395.13 320.62 392.13 322.91 390.60 C 324.22 391.40 325.30 392.99 327.02 392.78 C 329.22 393.14 332.86 391.52 333.52 394.62 C 336.33 395.03 339.19 394.73 342.02 394.71 C 344.39 394.83 346.50 393.03 348.90 393.72 C 350.36 394.30 351.68 395.27 353.24 395.61 C 355.21 395.78 357.01 394.62 358.98 394.66 C 361.17 394.47 363.66 394.99 365.54 393.51 C 365.37 388.82 365.90 384.11 365.42 379.45 C 364.34 377.74 363.12 375.38 360.80 375.42 C 356.68 374.56 352.78 377.45 351.01 380.98 M 312.56 402.42 C 308.81 402.46 305.14 403.51 301.35 403.44 C 299.03 403.58 298.97 406.41 297.96 407.96 C 296.50 409.51 294.61 410.60 293.21 412.21 C 290.38 415.68 291.52 421.04 288.24 424.24 C 285.38 426.84 283.90 430.99 279.68 431.72 C 278.88 433.30 278.36 435.06 278.46 436.85 C 279.09 439.41 281.15 441.23 282.44 443.45 C 283.01 447.32 284.30 451.16 286.66 454.32 C 288.47 456.61 288.01 459.88 289.74 462.22 C 291.29 464.03 293.45 465.44 294.06 467.89 C 295.21 471.67 298.59 474.02 301.20 476.76 C 303.27 479.33 306.76 477.81 309.53 478.52 C 310.98 479.19 312.26 480.56 314.00 480.34 C 316.78 480.39 318.50 477.57 321.16 477.19 C 322.99 476.85 324.81 478.15 326.60 477.62 C 327.64 475.64 327.57 472.99 329.12 471.37 C 331.96 471.23 334.44 472.63 336.04 474.92 C 338.75 473.04 341.31 470.82 344.41 469.58 C 346.94 469.62 348.98 467.96 351.43 467.62 C 351.52 466.18 351.26 464.72 351.58 463.31 C 353.29 462.51 355.06 461.82 356.88 461.30 C 358.01 462.64 358.62 465.18 360.86 464.79 C 364.06 463.69 365.94 460.52 368.64 458.61 C 369.72 455.20 367.54 452.56 366.41 449.58 C 365.21 449.00 363.73 448.96 362.76 447.99 C 364.27 446.39 367.02 446.20 367.91 444.06 C 365.41 442.08 361.30 442.71 358.14 442.09 C 356.22 440.27 354.87 437.63 352.00 437.15 C 350.57 437.88 349.46 439.10 348.07 439.89 C 346.68 439.14 345.25 438.50 343.69 438.26 C 343.57 437.53 343.48 436.81 343.40 436.09 C 342.53 436.53 341.69 437.02 340.82 437.45 C 337.52 435.26 333.39 435.14 330.00 433.01 C 327.60 432.54 328.33 429.91 328.49 428.19 C 327.65 427.38 326.72 426.68 325.87 425.91 C 326.53 423.48 328.35 421.20 327.61 418.57 C 325.03 417.37 322.24 416.66 319.76 415.25 C 317.65 413.87 315.51 411.00 317.63 408.66 C 320.75 406.32 324.34 409.43 327.75 408.65 C 332.04 407.69 336.53 407.41 340.68 405.86 C 340.67 404.27 338.16 404.50 337.06 403.88 C 329.05 402.66 320.33 397.72 312.56 402.42 Z"
       id="path21" />
    <path
       fill="#3c3533"
       opacity="1.00"
       d=" M 461.28 86.05 C 464.31 84.64 461.24 89.40 461.28 86.05 Z"
       id="path23" />
    <path
       fill="#3c3533"
       opacity="1.00"
       d=" M 206.56 356.43 C 205.86 353.32 205.86 349.27 208.78 347.27 C 209.60 350.40 210.22 353.59 210.68 356.79 C 209.30 356.82 207.89 356.82 206.56 356.43 Z"
       id="path25" />
    <path
       fill="#3c3533"
       opacity="1.00"
       d=" M 488.67 430.70 C 490.97 431.44 492.30 433.58 493.58 435.47 C 496.67 440.42 498.70 445.92 500.65 451.39 C 501.67 455.03 505.47 456.54 507.88 459.12 C 510.75 461.54 512.69 464.97 515.76 467.12 C 521.22 468.90 527.07 468.96 532.56 470.62 C 545.28 474.13 557.53 479.12 569.68 484.21 C 575.31 486.14 580.49 489.18 585.30 492.66 C 590.13 496.52 596.36 497.62 602.06 499.63 C 608.76 501.00 615.09 503.71 621.80 505.06 C 637.15 509.08 652.66 512.46 668.26 515.37 C 676.82 516.35 685.17 518.67 693.29 521.49 C 699.52 523.52 705.81 525.36 711.83 527.98 C 718.11 530.73 725.08 530.53 731.62 532.25 C 742.67 534.96 753.91 537.17 764.59 541.15 C 768.15 541.90 771.79 542.33 775.26 543.51 C 782.43 545.86 789.98 546.72 797.18 548.93 C 801.21 550.83 804.72 553.74 809.00 555.16 L 809.00 791.00 L 476.76 791.00 C 475.91 784.95 478.00 779.06 477.65 773.02 C 477.37 766.96 478.74 761.00 478.76 754.96 C 479.99 746.14 479.62 737.21 479.53 728.34 C 479.63 720.17 476.87 712.21 477.73 704.02 C 476.86 694.64 478.29 685.24 477.34 675.87 C 476.90 672.37 477.73 668.88 477.51 665.39 C 476.62 661.93 474.98 657.84 471.02 657.13 C 468.18 660.37 463.35 661.26 461.42 665.28 C 459.41 665.65 457.32 665.60 455.38 666.31 C 451.30 667.71 446.84 665.08 442.87 666.96 C 439.62 668.74 435.89 669.16 432.40 670.24 C 431.17 668.75 429.44 668.30 427.59 668.24 C 428.86 665.44 427.68 662.72 425.95 660.38 C 423.10 662.40 419.85 661.09 416.89 660.10 C 416.22 659.12 415.66 658.09 415.04 657.11 C 411.42 658.94 407.90 661.12 405.34 664.34 C 403.51 666.58 400.03 666.99 398.67 669.64 C 397.60 674.92 396.41 680.19 395.87 685.57 C 394.88 685.15 393.93 684.70 392.94 684.35 C 389.29 685.44 385.60 687.15 383.24 690.26 C 381.84 690.89 380.32 691.21 378.93 691.85 C 376.88 695.93 371.68 696.34 368.59 699.44 C 368.06 701.25 369.41 703.44 368.08 705.02 C 366.19 707.14 364.65 709.99 361.68 710.71 C 357.86 712.04 353.35 713.16 349.69 710.84 C 349.53 709.77 349.48 708.69 349.33 707.64 C 347.67 707.20 345.98 706.92 344.33 706.51 C 344.32 702.54 346.26 698.92 347.39 695.20 C 349.39 689.05 353.37 683.85 356.08 678.03 C 357.98 674.05 360.08 670.16 362.40 666.42 C 366.03 660.58 368.52 654.10 372.46 648.44 C 377.03 641.72 382.26 635.49 386.74 628.70 C 391.70 622.51 393.63 614.62 398.14 608.16 C 401.10 603.83 403.63 599.01 407.87 595.76 C 408.93 594.61 410.40 595.71 411.68 595.48 C 415.06 592.92 417.32 589.25 420.23 586.23 C 425.04 582.61 431.31 582.13 436.61 579.51 C 442.32 576.69 447.64 573.16 453.20 570.08 C 455.88 568.28 461.76 566.10 459.62 561.99 C 462.23 559.67 465.86 560.33 469.04 560.45 C 478.03 561.19 486.00 566.41 492.08 572.80 C 493.66 572.68 494.81 571.56 494.93 569.96 C 496.39 561.00 497.47 551.98 498.48 542.97 C 498.52 532.31 498.58 521.65 498.54 510.99 C 498.81 504.32 497.23 497.78 497.53 491.11 C 496.35 485.47 496.70 479.73 496.47 474.02 C 494.62 459.46 493.18 444.73 488.67 430.70 Z"
       id="path27" />
    <path
       fill="#3c3533"
       opacity="1.00"
       d=" M 365.25 734.24 C 369.34 733.70 373.12 731.98 376.12 729.13 C 375.77 732.95 371.89 734.36 368.81 735.56 C 367.63 735.37 365.68 735.61 365.25 734.24 Z"
       id="path29" />
  </g>
</svg>
